<svg xmlns="http://www.w3.org/2000/svg" viewBox="0 0 300 380" width="300" height="380">
  <defs>
    <linearGradient id="skinA" x1="0" x2="0" y1="0" y2="1">
      <stop offset="0%" stop-color="#f3c6a2"/>
      <stop offset="100%" stop-color="#e0a984"/>
    </linearGradient>
    <linearGradient id="skinB" x1="0" x2="0" y1="0" y2="1">
      <stop offset="0%" stop-color="#d7a77b"/>
      <stop offset="100%" stop-color="#b98358"/>
    </linearGradient>
    <linearGradient id="metal" x1="0" x2="1" y1="0" y2="1">
      <stop offset="0%" stop-color="#d8dde6"/>
      <stop offset="100%" stop-color="#9aa3ad"/>
    </linearGradient>
    <linearGradient id="cloth" x1="0" x2="0" y1="0" y2="1">
      <stop offset="0%" stop-color="#5d6d7e"/>
      <stop offset="100%" stop-color="#34495e"/>
    </linearGradient>
    <linearGradient id="leather" x1="0" x2="0" y1="0" y2="1">
      <stop offset="0%" stop-color="#8e5a2b"/>
      <stop offset="100%" stop-color="#5a3b1d"/>
    </linearGradient>
    <linearGradient id="ember" x1="0" x2="0" y1="0" y2="1">
      <stop offset="0%" stop-color="#ffcc80"/>
      <stop offset="100%" stop-color="#ef6c00"/>
    </linearGradient>
    <linearGradient id="verd" x1="0" x2="0" y1="0" y2="1">
      <stop offset="0%" stop-color="#66bb6a"/>
      <stop offset="100%" stop-color="#2e7d32"/>
    </linearGradient>
    <linearGradient id="sky" x1="0" x2="1" y1="0" y2="1">
      <stop offset="0%" stop-color="#81d4fa"/>
      <stop offset="100%" stop-color="#1976d2"/>
    </linearGradient>
    <linearGradient id="crystal" x1="0" x2="1" y1="0" y2="1">
      <stop offset="0%" stop-color="#e1f5fe"/>
      <stop offset="100%" stop-color="#81d4fa"/>
    </linearGradient>
    <filter id="softShadow" x="-20%" y="-20%" width="140%" height="140%">
      <feGaussianBlur in="SourceAlpha" stdDeviation="2" result="blur"/>
      <feOffset dx="0" dy="2" result="offsetBlur"/>
      <feMerge><feMergeNode in="offsetBlur"/><feMergeNode in="SourceGraphic"/></feMerge>
    </filter>
    <filter id="glow" x="-50%" y="-50%" width="200%" height="200%">
      <feGaussianBlur stdDeviation="4" result="b"/>
      <feMerge><feMergeNode in="b"/><feMergeNode in="SourceGraphic"/></feMerge>
    </filter>
  </defs>
<path d="M92,92 q6,-36 58,-38 q52,4 58,38 q0,30 -12,50 q-12,18 -26,32 q-20,20 -20,46 q0,-28 -18,-44 q-16,-14 -28,-30 q-12,-16 -12,-54Z" fill="#a0522d" filter="url(#softShadow)"/><path d="M110,90 q40,10 80,0 q-6,20 -40,24 q-34,-4 -40,-24Z" fill="#c07850" opacity="0.6"/>
</svg>