<svg xmlns="http://www.w3.org/2000/svg" viewBox="0 0 300 380" width="300" height="380">
  <defs>
    <linearGradient id="skinA" x1="0" x2="0" y1="0" y2="1">
      <stop offset="0%" stop-color="#f3c6a2"/>
      <stop offset="100%" stop-color="#e0a984"/>
    </linearGradient>
    <linearGradient id="skinB" x1="0" x2="0" y1="0" y2="1">
      <stop offset="0%" stop-color="#d7a77b"/>
      <stop offset="100%" stop-color="#b98358"/>
    </linearGradient>
    <linearGradient id="metal" x1="0" x2="1" y1="0" y2="1">
      <stop offset="0%" stop-color="#d8dde6"/>
      <stop offset="100%" stop-color="#9aa3ad"/>
    </linearGradient>
    <linearGradient id="cloth" x1="0" x2="0" y1="0" y2="1">
      <stop offset="0%" stop-color="#5d6d7e"/>
      <stop offset="100%" stop-color="#34495e"/>
    </linearGradient>
    <linearGradient id="leather" x1="0" x2="0" y1="0" y2="1">
      <stop offset="0%" stop-color="#8e5a2b"/>
      <stop offset="100%" stop-color="#5a3b1d"/>
    </linearGradient>
    <linearGradient id="ember" x1="0" x2="0" y1="0" y2="1">
      <stop offset="0%" stop-color="#ffcc80"/>
      <stop offset="100%" stop-color="#ef6c00"/>
    </linearGradient>
    <linearGradient id="verd" x1="0" x2="0" y1="0" y2="1">
      <stop offset="0%" stop-color="#66bb6a"/>
      <stop offset="100%" stop-color="#2e7d32"/>
    </linearGradient>
    <linearGradient id="sky" x1="0" x2="1" y1="0" y2="1">
      <stop offset="0%" stop-color="#81d4fa"/>
      <stop offset="100%" stop-color="#1976d2"/>
    </linearGradient>
    <linearGradient id="crystal" x1="0" x2="1" y1="0" y2="1">
      <stop offset="0%" stop-color="#e1f5fe"/>
      <stop offset="100%" stop-color="#81d4fa"/>
    </linearGradient>
    <filter id="softShadow" x="-20%" y="-20%" width="140%" height="140%">
      <feGaussianBlur in="SourceAlpha" stdDeviation="2" result="blur"/>
      <feOffset dx="0" dy="2" result="offsetBlur"/>
      <feMerge><feMergeNode in="offsetBlur"/><feMergeNode in="SourceGraphic"/></feMerge>
    </filter>
    <filter id="glow" x="-50%" y="-50%" width="200%" height="200%">
      <feGaussianBlur stdDeviation="4" result="b"/>
      <feMerge><feMergeNode in="b"/><feMergeNode in="SourceGraphic"/></feMerge>
    </filter>
  </defs>

  <path d="M100,140 q-10,-30 10,-55 q20,-30 60,-20 q40,8 42,42 q4,34 -18,50 q-22,16 -50,12 q-20,-2 -34,-29Z" fill="#a3b5c6"/>
  <path d="M128,110 q12,-6 28,0" stroke="#627384" stroke-width="4" stroke-linecap="round"/>
  <circle cx="150" cy="120" r="4" fill="#1b2631"/>
  <rect x="132" y="160" width="36" height="34" rx="4" fill="#8fa3b6"/>
  <path d="M132,168 h36 M132,178 h36" stroke="#6e8398" stroke-width="3"/>

</svg>