<svg xmlns="http://www.w3.org/2000/svg" viewBox="0 0 300 380" width="300" height="380">
  <defs>
    <linearGradient id="skinA" x1="0" x2="0" y1="0" y2="1">
      <stop offset="0%" stop-color="#f3c6a2"/>
      <stop offset="100%" stop-color="#e0a984"/>
    </linearGradient>
    <linearGradient id="skinB" x1="0" x2="0" y1="0" y2="1">
      <stop offset="0%" stop-color="#d7a77b"/>
      <stop offset="100%" stop-color="#b98358"/>
    </linearGradient>
    <linearGradient id="metal" x1="0" x2="1" y1="0" y2="1">
      <stop offset="0%" stop-color="#d8dde6"/>
      <stop offset="100%" stop-color="#9aa3ad"/>
    </linearGradient>
    <linearGradient id="cloth" x1="0" x2="0" y1="0" y2="1">
      <stop offset="0%" stop-color="#5d6d7e"/>
      <stop offset="100%" stop-color="#34495e"/>
    </linearGradient>
    <linearGradient id="leather" x1="0" x2="0" y1="0" y2="1">
      <stop offset="0%" stop-color="#8e5a2b"/>
      <stop offset="100%" stop-color="#5a3b1d"/>
    </linearGradient>
    <linearGradient id="ember" x1="0" x2="0" y1="0" y2="1">
      <stop offset="0%" stop-color="#ffcc80"/>
      <stop offset="100%" stop-color="#ef6c00"/>
    </linearGradient>
    <linearGradient id="verd" x1="0" x2="0" y1="0" y2="1">
      <stop offset="0%" stop-color="#66bb6a"/>
      <stop offset="100%" stop-color="#2e7d32"/>
    </linearGradient>
    <linearGradient id="sky" x1="0" x2="1" y1="0" y2="1">
      <stop offset="0%" stop-color="#81d4fa"/>
      <stop offset="100%" stop-color="#1976d2"/>
    </linearGradient>
    <linearGradient id="crystal" x1="0" x2="1" y1="0" y2="1">
      <stop offset="0%" stop-color="#e1f5fe"/>
      <stop offset="100%" stop-color="#81d4fa"/>
    </linearGradient>
    <filter id="softShadow" x="-20%" y="-20%" width="140%" height="140%">
      <feGaussianBlur in="SourceAlpha" stdDeviation="2" result="blur"/>
      <feOffset dx="0" dy="2" result="offsetBlur"/>
      <feMerge><feMergeNode in="offsetBlur"/><feMergeNode in="SourceGraphic"/></feMerge>
    </filter>
    <filter id="glow" x="-50%" y="-50%" width="200%" height="200%">
      <feGaussianBlur stdDeviation="4" result="b"/>
      <feMerge><feMergeNode in="b"/><feMergeNode in="SourceGraphic"/></feMerge>
    </filter>
  </defs>

  <ellipse cx="150" cy="112" rx="54" ry="52" fill="#1f2833"/>
  <rect x="132" y="160" width="36" height="34" rx="6" fill="#1f2833"/>
  <circle cx="132" cy="110" r="3" fill="#e8ffff"/><circle cx="168" cy="110" r="3" fill="#e8ffff"/>
  <g opacity="0.35" filter="url(#glow)"><circle cx="132" cy="110" r="6" fill="#8be9fd"/><circle cx="168" cy="110" r="6" fill="#bd93f9"/></g>
  <path d="M120,96 q30,-10 60,0" stroke="#8be9fd" stroke-width="2" opacity="0.25"/>

</svg>