<svg xmlns="http://www.w3.org/2000/svg" viewBox="0 0 300 380" width="300" height="380">
  <defs>
    <linearGradient id="skinA" x1="0" x2="0" y1="0" y2="1">
      <stop offset="0%" stop-color="#f3c6a2"/>
      <stop offset="100%" stop-color="#e0a984"/>
    </linearGradient>
    <linearGradient id="skinB" x1="0" x2="0" y1="0" y2="1">
      <stop offset="0%" stop-color="#d7a77b"/>
      <stop offset="100%" stop-color="#b98358"/>
    </linearGradient>
    <linearGradient id="metal" x1="0" x2="1" y1="0" y2="1">
      <stop offset="0%" stop-color="#d8dde6"/>
      <stop offset="100%" stop-color="#9aa3ad"/>
    </linearGradient>
    <linearGradient id="cloth" x1="0" x2="0" y1="0" y2="1">
      <stop offset="0%" stop-color="#5d6d7e"/>
      <stop offset="100%" stop-color="#34495e"/>
    </linearGradient>
    <linearGradient id="leather" x1="0" x2="0" y1="0" y2="1">
      <stop offset="0%" stop-color="#8e5a2b"/>
      <stop offset="100%" stop-color="#5a3b1d"/>
    </linearGradient>
    <linearGradient id="ember" x1="0" x2="0" y1="0" y2="1">
      <stop offset="0%" stop-color="#ffcc80"/>
      <stop offset="100%" stop-color="#ef6c00"/>
    </linearGradient>
    <linearGradient id="verd" x1="0" x2="0" y1="0" y2="1">
      <stop offset="0%" stop-color="#66bb6a"/>
      <stop offset="100%" stop-color="#2e7d32"/>
    </linearGradient>
    <linearGradient id="sky" x1="0" x2="1" y1="0" y2="1">
      <stop offset="0%" stop-color="#81d4fa"/>
      <stop offset="100%" stop-color="#1976d2"/>
    </linearGradient>
    <linearGradient id="crystal" x1="0" x2="1" y1="0" y2="1">
      <stop offset="0%" stop-color="#e1f5fe"/>
      <stop offset="100%" stop-color="#81d4fa"/>
    </linearGradient>
    <filter id="softShadow" x="-20%" y="-20%" width="140%" height="140%">
      <feGaussianBlur in="SourceAlpha" stdDeviation="2" result="blur"/>
      <feOffset dx="0" dy="2" result="offsetBlur"/>
      <feMerge><feMergeNode in="offsetBlur"/><feMergeNode in="SourceGraphic"/></feMerge>
    </filter>
    <filter id="glow" x="-50%" y="-50%" width="200%" height="200%">
      <feGaussianBlur stdDeviation="4" result="b"/>
      <feMerge><feMergeNode in="b"/><feMergeNode in="SourceGraphic"/></feMerge>
    </filter>
  </defs>

  <path d="M76,230 q22,-40 74,-40 q52,0 74,40 v60 H76Z" fill="url(#verd)" filter="url(#softShadow)"/>
  <path d="M90,238 q60,-16 120,0" stroke="#1b5e20" stroke-width="8"/>
  <path d="M70,226 q24,-18 38,0 v12 h-38Z" fill="#33691e"/>
  <path d="M232,226 q-24,-18 -38,0 v12 h38Z" fill="#33691e"/>

</svg>