<svg width="300" height="380" viewBox="0 0 300 380" xmlns="http://www.w3.org/2000/svg">
  <!-- Short Brown Hair -->
  <defs>
    <radialGradient id="brownHair" cx="0.3" cy="0.2" r="0.8">
      <stop offset="0%" stop-color="#8b4513"/>
      <stop offset="70%" stop-color="#654321"/>
      <stop offset="100%" stop-color="#3e2723"/>
    </radialGradient>
  </defs>
  
  <!-- Hair base -->
  <path d="M 110 85 Q 150 75 190 85 Q 195 90 195 100 Q 190 115 185 125 Q 175 135 165 140 Q 150 145 135 140 Q 125 135 115 125 Q 110 115 105 100 Q 105 90 110 85 Z" 
        fill="url(#brownHair)" stroke="#3e2723" stroke-width="1"/>
  
  <!-- Hair strands -->
  <path d="M 120 80 Q 125 75 130 80 Q 135 85 140 80" fill="none" stroke="#3e2723" stroke-width="2" opacity="0.7"/>
  <path d="M 160 80 Q 165 75 170 80 Q 175 85 180 80" fill="none" stroke="#3e2723" stroke-width="2" opacity="0.7"/>
  
  <!-- Side part -->
  <path d="M 145 80 Q 150 78 155 80" fill="none" stroke="#3e2723" stroke-width="1.5"/>
</svg>